<mxfile host="Electron" modified="2023-11-30T19:56:36.608Z" agent="Mozilla/5.0 (Windows NT 10.0; Win64; x64) AppleWebKit/537.36 (KHTML, like Gecko) draw.io/22.1.2 Chrome/114.0.5735.289 Electron/25.9.4 Safari/537.36" etag="mKnCvQ1I8ST6OFVXe0lE" version="22.1.2" type="device">
  <diagram id="4TkD4DCGlT1kFqYrGZDR" name="Page-1">
    <mxGraphModel dx="1098" dy="868" grid="1" gridSize="10" guides="1" tooltips="1" connect="1" arrows="1" fold="1" page="1" pageScale="1" pageWidth="827" pageHeight="1169" math="0" shadow="0">
      <root>
        <mxCell id="0" />
        <mxCell id="1" parent="0" />
        <mxCell id="oRXzgMA2RfeYsCnRNZTn-48" style="edgeStyle=orthogonalEdgeStyle;rounded=0;orthogonalLoop=1;jettySize=auto;html=1;exitX=0.5;exitY=1;exitDx=0;exitDy=0;entryX=0.5;entryY=0;entryDx=0;entryDy=0;" edge="1" parent="1" source="oRXzgMA2RfeYsCnRNZTn-1" target="oRXzgMA2RfeYsCnRNZTn-2">
          <mxGeometry relative="1" as="geometry" />
        </mxCell>
        <mxCell id="oRXzgMA2RfeYsCnRNZTn-1" value="Client" style="ellipse;whiteSpace=wrap;html=1;aspect=fixed;fillColor=#ffe6cc;strokeColor=#d79b00;" vertex="1" parent="1">
          <mxGeometry x="360" y="80" width="80" height="80" as="geometry" />
        </mxCell>
        <mxCell id="oRXzgMA2RfeYsCnRNZTn-41" style="edgeStyle=orthogonalEdgeStyle;rounded=0;orthogonalLoop=1;jettySize=auto;html=1;entryX=0.5;entryY=0;entryDx=0;entryDy=0;" edge="1" parent="1" source="oRXzgMA2RfeYsCnRNZTn-2" target="oRXzgMA2RfeYsCnRNZTn-6">
          <mxGeometry relative="1" as="geometry" />
        </mxCell>
        <mxCell id="oRXzgMA2RfeYsCnRNZTn-43" style="edgeStyle=orthogonalEdgeStyle;rounded=0;orthogonalLoop=1;jettySize=auto;html=1;exitX=1;exitY=1;exitDx=0;exitDy=0;entryX=0.5;entryY=0;entryDx=0;entryDy=0;" edge="1" parent="1" source="oRXzgMA2RfeYsCnRNZTn-2" target="oRXzgMA2RfeYsCnRNZTn-5">
          <mxGeometry relative="1" as="geometry" />
        </mxCell>
        <mxCell id="oRXzgMA2RfeYsCnRNZTn-46" style="edgeStyle=orthogonalEdgeStyle;rounded=0;orthogonalLoop=1;jettySize=auto;html=1;exitX=0;exitY=1;exitDx=0;exitDy=0;entryX=0.5;entryY=0;entryDx=0;entryDy=0;" edge="1" parent="1" source="oRXzgMA2RfeYsCnRNZTn-2" target="oRXzgMA2RfeYsCnRNZTn-4">
          <mxGeometry relative="1" as="geometry" />
        </mxCell>
        <mxCell id="oRXzgMA2RfeYsCnRNZTn-47" style="edgeStyle=orthogonalEdgeStyle;rounded=0;orthogonalLoop=1;jettySize=auto;html=1;exitX=0;exitY=0.5;exitDx=0;exitDy=0;entryX=0.5;entryY=0;entryDx=0;entryDy=0;" edge="1" parent="1" source="oRXzgMA2RfeYsCnRNZTn-2" target="oRXzgMA2RfeYsCnRNZTn-3">
          <mxGeometry relative="1" as="geometry" />
        </mxCell>
        <mxCell id="oRXzgMA2RfeYsCnRNZTn-2" value="API" style="rounded=0;whiteSpace=wrap;html=1;fillColor=#d5e8d4;strokeColor=#82b366;" vertex="1" parent="1">
          <mxGeometry x="320" y="195" width="160" height="60" as="geometry" />
        </mxCell>
        <mxCell id="oRXzgMA2RfeYsCnRNZTn-3" value="users" style="ellipse;whiteSpace=wrap;html=1;fillColor=#e1d5e7;strokeColor=#9673a6;" vertex="1" parent="1">
          <mxGeometry x="80" y="280" width="120" height="80" as="geometry" />
        </mxCell>
        <mxCell id="oRXzgMA2RfeYsCnRNZTn-4" value="blog" style="ellipse;whiteSpace=wrap;html=1;fillColor=#e1d5e7;strokeColor=#9673a6;" vertex="1" parent="1">
          <mxGeometry x="240" y="280" width="120" height="80" as="geometry" />
        </mxCell>
        <mxCell id="oRXzgMA2RfeYsCnRNZTn-5" value="notifications" style="ellipse;whiteSpace=wrap;html=1;fillColor=#e1d5e7;strokeColor=#9673a6;" vertex="1" parent="1">
          <mxGeometry x="440" y="280" width="120" height="80" as="geometry" />
        </mxCell>
        <mxCell id="oRXzgMA2RfeYsCnRNZTn-6" value="file storage" style="ellipse;whiteSpace=wrap;html=1;fillColor=#e1d5e7;strokeColor=#9673a6;" vertex="1" parent="1">
          <mxGeometry x="600" y="280" width="120" height="80" as="geometry" />
        </mxCell>
        <mxCell id="oRXzgMA2RfeYsCnRNZTn-7" value="db" style="shape=cylinder3;whiteSpace=wrap;html=1;boundedLbl=1;backgroundOutline=1;size=15;fillColor=#dae8fc;strokeColor=#6c8ebf;" vertex="1" parent="1">
          <mxGeometry x="110" y="400" width="60" height="80" as="geometry" />
        </mxCell>
        <mxCell id="oRXzgMA2RfeYsCnRNZTn-8" value="db" style="shape=cylinder3;whiteSpace=wrap;html=1;boundedLbl=1;backgroundOutline=1;size=15;fillColor=#dae8fc;strokeColor=#6c8ebf;" vertex="1" parent="1">
          <mxGeometry x="270" y="400" width="60" height="80" as="geometry" />
        </mxCell>
        <mxCell id="oRXzgMA2RfeYsCnRNZTn-9" value="db" style="shape=cylinder3;whiteSpace=wrap;html=1;boundedLbl=1;backgroundOutline=1;size=15;fillColor=#dae8fc;strokeColor=#6c8ebf;" vertex="1" parent="1">
          <mxGeometry x="470" y="400" width="60" height="80" as="geometry" />
        </mxCell>
        <mxCell id="oRXzgMA2RfeYsCnRNZTn-10" value="db" style="shape=cylinder3;whiteSpace=wrap;html=1;boundedLbl=1;backgroundOutline=1;size=15;fillColor=#dae8fc;strokeColor=#6c8ebf;" vertex="1" parent="1">
          <mxGeometry x="630" y="400" width="60" height="80" as="geometry" />
        </mxCell>
        <mxCell id="oRXzgMA2RfeYsCnRNZTn-33" style="edgeStyle=orthogonalEdgeStyle;rounded=0;orthogonalLoop=1;jettySize=auto;html=1;exitX=0.5;exitY=1;exitDx=0;exitDy=0;" edge="1" parent="1" source="oRXzgMA2RfeYsCnRNZTn-3">
          <mxGeometry relative="1" as="geometry">
            <mxPoint x="140" y="360" as="targetPoint" />
          </mxGeometry>
        </mxCell>
        <mxCell id="oRXzgMA2RfeYsCnRNZTn-37" value="" style="endArrow=classic;startArrow=classic;html=1;rounded=0;entryX=0.5;entryY=1;entryDx=0;entryDy=0;exitX=0.5;exitY=0;exitDx=0;exitDy=0;exitPerimeter=0;" edge="1" parent="1" source="oRXzgMA2RfeYsCnRNZTn-7" target="oRXzgMA2RfeYsCnRNZTn-3">
          <mxGeometry width="50" height="50" relative="1" as="geometry">
            <mxPoint x="390" y="360" as="sourcePoint" />
            <mxPoint x="440" y="310" as="targetPoint" />
          </mxGeometry>
        </mxCell>
        <mxCell id="oRXzgMA2RfeYsCnRNZTn-38" value="" style="endArrow=classic;startArrow=classic;html=1;rounded=0;entryX=0.5;entryY=1;entryDx=0;entryDy=0;exitX=0.5;exitY=0;exitDx=0;exitDy=0;exitPerimeter=0;" edge="1" parent="1" source="oRXzgMA2RfeYsCnRNZTn-8" target="oRXzgMA2RfeYsCnRNZTn-4">
          <mxGeometry width="50" height="50" relative="1" as="geometry">
            <mxPoint x="390" y="360" as="sourcePoint" />
            <mxPoint x="440" y="310" as="targetPoint" />
          </mxGeometry>
        </mxCell>
        <mxCell id="oRXzgMA2RfeYsCnRNZTn-39" value="" style="endArrow=classic;startArrow=classic;html=1;rounded=0;entryX=0.5;entryY=1;entryDx=0;entryDy=0;exitX=0.5;exitY=0;exitDx=0;exitDy=0;exitPerimeter=0;" edge="1" parent="1" source="oRXzgMA2RfeYsCnRNZTn-9" target="oRXzgMA2RfeYsCnRNZTn-5">
          <mxGeometry width="50" height="50" relative="1" as="geometry">
            <mxPoint x="390" y="360" as="sourcePoint" />
            <mxPoint x="440" y="310" as="targetPoint" />
          </mxGeometry>
        </mxCell>
        <mxCell id="oRXzgMA2RfeYsCnRNZTn-40" value="" style="endArrow=classic;startArrow=classic;html=1;rounded=0;entryX=0.5;entryY=1;entryDx=0;entryDy=0;exitX=0.5;exitY=0;exitDx=0;exitDy=0;exitPerimeter=0;" edge="1" parent="1" source="oRXzgMA2RfeYsCnRNZTn-10" target="oRXzgMA2RfeYsCnRNZTn-6">
          <mxGeometry width="50" height="50" relative="1" as="geometry">
            <mxPoint x="390" y="360" as="sourcePoint" />
            <mxPoint x="440" y="310" as="targetPoint" />
          </mxGeometry>
        </mxCell>
      </root>
    </mxGraphModel>
  </diagram>
</mxfile>
